# MagicaVoxel @ Ephtracy

# group
o 

# material
mtllib Bat-0.mtl
usemtl palette

# normals
vn -1 0 0
vn 1 0 0
vn 0 0 1
vn 0 0 -1
vn 0 -1 0
vn 0 1 0

# texcoords
vt 0.970703 0.5
vt 0.974609 0.5
vt 0.978516 0.5

# verts
v -0.3 1.2 0
v -0.3 1.2 -0.1
v -0.3 1.3 0
v -0.3 1.3 -0.1
v -0.3 1.5 0.2
v -0.3 1.5 0.1
v -0.3 1.6 0.2
v -0.3 1.6 0.1
v -0.3 1.7 0
v -0.3 1.7 -0.1
v -0.3 1.8 0
v -0.3 1.8 -0.1
v -0.2 -2 0.1
v -0.2 -2 -0.1
v -0.2 -1.9 0.1
v -0.2 -1.9 -0.1
v -0.2 -0.5 0.1
v -0.2 -0.5 -0.1
v -0.2 0.6 0.2
v -0.2 0.6 0.1
v -0.2 0.6 -0.1
v -0.2 0.6 -0.2
v -0.2 1 0.3
v -0.2 1 0.2
v -0.2 1.1 0.3
v -0.2 1.1 0.2
v -0.2 1.2 0
v -0.2 1.2 -0.1
v -0.2 1.3 0
v -0.2 1.3 -0.1
v -0.2 1.5 0.2
v -0.2 1.5 0.1
v -0.2 1.5 -0.2
v -0.2 1.5 -0.3
v -0.2 1.6 0.2
v -0.2 1.6 0.1
v -0.2 1.6 -0.2
v -0.2 1.6 -0.3
v -0.2 1.7 0
v -0.2 1.7 -0.1
v -0.2 1.8 0
v -0.2 1.8 -0.1
v -0.2 1.9 0.2
v -0.2 1.9 0.1
v -0.2 1.9 -0.1
v -0.2 1.9 -0.2
v -0.2 2 0.1
v -0.2 2 0
v -0.2 2 -0.1
v -0.2 2.1 0
v -0.2 2.1 -0.1
v -0.1 -2 0.2
v -0.1 -2 0.1
v -0.1 -2 -0.1
v -0.1 -2 -0.2
v -0.1 -1.9 0.2
v -0.1 -1.9 0.1
v -0.1 -1.9 -0.1
v -0.1 -1.9 -0.2
v -0.1 -0.9 0.1
v -0.1 -0.9 -0.1
v -0.1 -0.8 0.1
v -0.1 -0.8 -0.1
v -0.1 -0.5 0.2
v -0.1 -0.5 0.1
v -0.1 -0.5 -0.1
v -0.1 -0.5 -0.2
v -0.1 0.6 0.2
v -0.1 0.6 0.1
v -0.1 0.6 -0.1
v -0.1 0.6 -0.2
v -0.1 1 -0.2
v -0.1 1 -0.3
v -0.1 1.1 -0.2
v -0.1 1.1 -0.3
v -0.1 1.4 0.3
v -0.1 1.4 0.2
v -0.1 1.5 0.3
v -0.1 1.5 0.2
v -0.1 1.7 0.3
v -0.1 1.7 0.2
v -0.1 1.8 0.3
v -0.1 1.8 0.2
v -0.1 1.9 0.2
v -0.1 1.9 0.1
v -0.1 1.9 -0.1
v -0.1 1.9 -0.2
v -0.1 2 0.2
v -0.1 2 0.1
v -0.1 2 -0.1
v -0.1 2 -0.2
v 0 1.3 -0.2
v 0 1.3 -0.3
v 0 1.4 -0.2
v 0 1.4 -0.3
v 0 1.7 -0.2
v 0 1.7 -0.3
v 0 1.8 -0.2
v 0 1.8 -0.3
v 0 2 0.1
v 0 2 0
v 0 2.1 0.1
v 0 2.1 0
v 0.1 1.1 0.3
v 0.1 1.1 0.2
v 0.1 1.2 0.3
v 0.1 1.2 0.2
v -0.1 1 0.3
v -0.1 1 0.2
v -0.1 1.1 0.3
v -0.1 1.1 0.2
v -0.1 1.5 -0.2
v -0.1 1.5 -0.3
v -0.1 1.6 -0.2
v -0.1 1.6 -0.3
v -0.1 2 0
v -0.1 2 -0.1
v -0.1 2.1 0
v -0.1 2.1 -0.1
v 0 1 -0.2
v 0 1 -0.3
v 0 1.1 -0.2
v 0 1.1 -0.3
v 0 1.4 0.3
v 0 1.4 0.2
v 0 1.5 0.3
v 0 1.5 0.2
v 0 1.7 0.3
v 0 1.7 0.2
v 0 1.8 0.3
v 0 1.8 0.2
v 0.1 -2 0.2
v 0.1 -2 0.1
v 0.1 -2 -0.1
v 0.1 -2 -0.2
v 0.1 -1.9 0.2
v 0.1 -1.9 0.1
v 0.1 -1.9 -0.1
v 0.1 -1.9 -0.2
v 0.1 -0.9 0.1
v 0.1 -0.9 -0.1
v 0.1 -0.8 0.1
v 0.1 -0.8 -0.1
v 0.1 -0.5 0.2
v 0.1 -0.5 0.1
v 0.1 -0.5 -0.1
v 0.1 -0.5 -0.2
v 0.1 0.6 0.2
v 0.1 0.6 0.1
v 0.1 0.6 -0.1
v 0.1 0.6 -0.2
v 0.1 1.3 -0.2
v 0.1 1.3 -0.3
v 0.1 1.4 -0.2
v 0.1 1.4 -0.3
v 0.1 1.7 -0.2
v 0.1 1.7 -0.3
v 0.1 1.8 -0.2
v 0.1 1.8 -0.3
v 0.1 1.9 -0.1
v 0.1 1.9 -0.2
v 0.1 2 0.1
v 0.1 2 0
v 0.1 2 -0.1
v 0.1 2 -0.2
v 0.1 2.1 0.1
v 0.1 2.1 0
v 0.2 -2 0.1
v 0.2 -2 -0.1
v 0.2 -1.9 0.1
v 0.2 -1.9 -0.1
v 0.2 -0.5 0.1
v 0.2 -0.5 -0.1
v 0.2 0.6 0.2
v 0.2 0.6 0.1
v 0.2 0.6 -0.1
v 0.2 0.6 -0.2
v 0.2 1.1 0.3
v 0.2 1.1 0.2
v 0.2 1.1 0
v 0.2 1.1 -0.1
v 0.2 1.2 0.3
v 0.2 1.2 0.2
v 0.2 1.2 0
v 0.2 1.2 -0.1
v 0.2 1.5 0.1
v 0.2 1.5 0
v 0.2 1.6 0.1
v 0.2 1.6 0
v 0.2 1.8 0
v 0.2 1.8 -0.1
v 0.2 1.9 0.2
v 0.2 1.9 0.1
v 0.2 1.9 0
v 0.2 1.9 -0.1
v 0.2 1.9 -0.2
v 0.2 2 0.2
v 0.2 2 0.1
v 0.2 2 -0.1
v 0.3 1.1 0
v 0.3 1.1 -0.1
v 0.3 1.2 0
v 0.3 1.2 -0.1
v 0.3 1.5 0.1
v 0.3 1.5 0
v 0.3 1.6 0.1
v 0.3 1.6 0
v 0.3 1.8 0
v 0.3 1.8 -0.1
v 0.3 1.9 0
v 0.3 1.9 -0.1
v -0.2 1 0.3
v -0.2 1.1 0.3
v -0.1 1 0.3
v -0.1 1.1 0.3
v -0.1 1.4 0.3
v -0.1 1.5 0.3
v -0.1 1.7 0.3
v -0.1 1.8 0.3
v 0 1.4 0.3
v 0 1.5 0.3
v 0 1.7 0.3
v 0 1.8 0.3
v 0.1 1.1 0.3
v 0.1 1.2 0.3
v 0.2 1.1 0.3
v 0.2 1.2 0.3
v -0.3 1.5 0.2
v -0.3 1.6 0.2
v -0.2 0.6 0.2
v -0.2 1 0.2
v -0.2 1.1 0.2
v -0.2 1.5 0.2
v -0.2 1.6 0.2
v -0.2 1.9 0.2
v -0.1 -2 0.2
v -0.1 -1.9 0.2
v -0.1 -0.5 0.2
v -0.1 0.6 0.2
v -0.1 1 0.2
v -0.1 1.1 0.2
v -0.1 1.4 0.2
v -0.1 1.5 0.2
v -0.1 1.7 0.2
v -0.1 1.8 0.2
v -0.1 1.9 0.2
v -0.1 2 0.2
v 0 1.4 0.2
v 0 1.5 0.2
v 0 1.7 0.2
v 0 1.8 0.2
v 0.1 -2 0.2
v 0.1 -1.9 0.2
v 0.1 -0.5 0.2
v 0.1 0.6 0.2
v 0.1 1.1 0.2
v 0.1 1.2 0.2
v 0.1 1.9 0.2
v 0.1 2 0.2
v 0.2 0.6 0.2
v 0.2 1.1 0.2
v 0.2 1.2 0.2
v 0.2 1.9 0.2
v 0.2 2 0.2
v -0.2 -2 0.1
v -0.2 -1.9 0.1
v -0.2 -0.5 0.1
v -0.2 0.6 0.1
v -0.2 1.9 0.1
v -0.2 2 0.1
v -0.1 -2 0.1
v -0.1 -1.9 0.1
v -0.1 -0.9 0.1
v -0.1 -0.8 0.1
v -0.1 -0.5 0.1
v -0.1 0.6 0.1
v -0.1 1.9 0.1
v -0.1 2 0.1
v 0 2 0.1
v 0 2.1 0.1
v 0.1 -2 0.1
v 0.1 -1.9 0.1
v 0.1 -0.9 0.1
v 0.1 -0.8 0.1
v 0.1 -0.5 0.1
v 0.1 0.6 0.1
v 0.1 2 0.1
v 0.1 2.1 0.1
v 0.2 -2 0.1
v 0.2 -1.9 0.1
v 0.2 -0.5 0.1
v 0.2 0.6 0.1
v 0.2 1.5 0.1
v 0.2 1.6 0.1
v 0.3 1.5 0.1
v 0.3 1.6 0.1
v -0.3 1.2 0
v -0.3 1.3 0
v -0.3 1.7 0
v -0.3 1.8 0
v -0.2 1.2 0
v -0.2 1.3 0
v -0.2 1.7 0
v -0.2 1.8 0
v -0.2 2 0
v -0.2 2.1 0
v -0.1 2 0
v -0.1 2.1 0
v 0.2 1.1 0
v 0.2 1.2 0
v 0.2 1.8 0
v 0.2 1.9 0
v 0.3 1.1 0
v 0.3 1.2 0
v 0.3 1.8 0
v 0.3 1.9 0
v -0.3 1.5 0.1
v -0.3 1.6 0.1
v -0.2 1.5 0.1
v -0.2 1.6 0.1
v 0 2 0
v 0 2.1 0
v 0.1 2 0
v 0.1 2.1 0
v 0.2 1.5 0
v 0.2 1.6 0
v 0.3 1.5 0
v 0.3 1.6 0
v -0.3 1.2 -0.1
v -0.3 1.3 -0.1
v -0.3 1.7 -0.1
v -0.3 1.8 -0.1
v -0.2 -2 -0.1
v -0.2 -1.9 -0.1
v -0.2 -0.5 -0.1
v -0.2 0.6 -0.1
v -0.2 1.2 -0.1
v -0.2 1.3 -0.1
v -0.2 1.7 -0.1
v -0.2 1.8 -0.1
v -0.2 1.9 -0.1
v -0.2 2 -0.1
v -0.2 2.1 -0.1
v -0.1 -2 -0.1
v -0.1 -1.9 -0.1
v -0.1 -0.9 -0.1
v -0.1 -0.8 -0.1
v -0.1 -0.5 -0.1
v -0.1 0.6 -0.1
v -0.1 1.9 -0.1
v -0.1 2 -0.1
v -0.1 2.1 -0.1
v 0.1 -2 -0.1
v 0.1 -1.9 -0.1
v 0.1 -0.9 -0.1
v 0.1 -0.8 -0.1
v 0.1 -0.5 -0.1
v 0.1 0.6 -0.1
v 0.1 1.9 -0.1
v 0.1 2 -0.1
v 0.2 -2 -0.1
v 0.2 -1.9 -0.1
v 0.2 -0.5 -0.1
v 0.2 0.6 -0.1
v 0.2 1.1 -0.1
v 0.2 1.2 -0.1
v 0.2 1.8 -0.1
v 0.2 1.9 -0.1
v 0.2 2 -0.1
v 0.3 1.1 -0.1
v 0.3 1.2 -0.1
v 0.3 1.8 -0.1
v 0.3 1.9 -0.1
v -0.2 0.6 -0.2
v -0.2 1.5 -0.2
v -0.2 1.6 -0.2
v -0.2 1.9 -0.2
v -0.1 -2 -0.2
v -0.1 -1.9 -0.2
v -0.1 -0.5 -0.2
v -0.1 0.6 -0.2
v -0.1 1 -0.2
v -0.1 1.1 -0.2
v -0.1 1.5 -0.2
v -0.1 1.6 -0.2
v -0.1 1.9 -0.2
v -0.1 2 -0.2
v 0 1 -0.2
v 0 1.1 -0.2
v 0 1.3 -0.2
v 0 1.4 -0.2
v 0 1.7 -0.2
v 0 1.8 -0.2
v 0.1 -2 -0.2
v 0.1 -1.9 -0.2
v 0.1 -0.5 -0.2
v 0.1 0.6 -0.2
v 0.1 1.3 -0.2
v 0.1 1.4 -0.2
v 0.1 1.7 -0.2
v 0.1 1.8 -0.2
v 0.1 1.9 -0.2
v 0.1 2 -0.2
v 0.2 0.6 -0.2
v 0.2 1.9 -0.2
v -0.2 1.5 -0.3
v -0.2 1.6 -0.3
v -0.1 1 -0.3
v -0.1 1.1 -0.3
v -0.1 1.5 -0.3
v -0.1 1.6 -0.3
v 0 1 -0.3
v 0 1.1 -0.3
v 0 1.3 -0.3
v 0 1.4 -0.3
v 0 1.7 -0.3
v 0 1.8 -0.3
v 0.1 1.3 -0.3
v 0.1 1.4 -0.3
v 0.1 1.7 -0.3
v 0.1 1.8 -0.3
v -0.1 -2 0.2
v 0.1 -2 0.2
v -0.2 -2 0.1
v -0.1 -2 0.1
v 0.1 -2 0.1
v 0.2 -2 0.1
v -0.2 -2 -0.1
v -0.1 -2 -0.1
v 0.1 -2 -0.1
v 0.2 -2 -0.1
v -0.1 -2 -0.2
v 0.1 -2 -0.2
v -0.1 -0.5 0.2
v 0.1 -0.5 0.2
v -0.2 -0.5 0.1
v -0.1 -0.5 0.1
v 0.1 -0.5 0.1
v 0.2 -0.5 0.1
v -0.2 -0.5 -0.1
v -0.1 -0.5 -0.1
v 0.1 -0.5 -0.1
v 0.2 -0.5 -0.1
v -0.1 -0.5 -0.2
v 0.1 -0.5 -0.2
v -0.2 0.6 0.2
v -0.1 0.6 0.2
v 0.1 0.6 0.2
v 0.2 0.6 0.2
v -0.2 0.6 0.1
v -0.1 0.6 0.1
v 0.1 0.6 0.1
v 0.2 0.6 0.1
v -0.2 0.6 -0.1
v -0.1 0.6 -0.1
v 0.1 0.6 -0.1
v 0.2 0.6 -0.1
v -0.2 0.6 -0.2
v -0.1 0.6 -0.2
v 0.1 0.6 -0.2
v 0.2 0.6 -0.2
v -0.2 1 0.3
v -0.1 1 0.3
v -0.2 1 0.2
v -0.1 1 0.2
v -0.1 1 -0.2
v 0 1 -0.2
v -0.1 1 -0.3
v 0 1 -0.3
v 0.1 1.1 0.3
v 0.2 1.1 0.3
v 0.1 1.1 0.2
v 0.2 1.1 0.2
v 0.2 1.1 0
v 0.3 1.1 0
v 0.2 1.1 -0.1
v 0.3 1.1 -0.1
v -0.3 1.2 0
v -0.2 1.2 0
v -0.3 1.2 -0.1
v -0.2 1.2 -0.1
v 0 1.3 -0.2
v 0.1 1.3 -0.2
v 0 1.3 -0.3
v 0.1 1.3 -0.3
v -0.1 1.4 0.3
v 0 1.4 0.3
v -0.1 1.4 0.2
v 0 1.4 0.2
v -0.3 1.5 0.2
v -0.2 1.5 0.2
v -0.3 1.5 0.1
v -0.2 1.5 0.1
v 0.2 1.5 0.1
v 0.3 1.5 0.1
v 0.2 1.5 0
v 0.3 1.5 0
v -0.2 1.5 -0.2
v -0.1 1.5 -0.2
v -0.2 1.5 -0.3
v -0.1 1.5 -0.3
v -0.1 1.7 0.3
v 0 1.7 0.3
v -0.1 1.7 0.2
v 0 1.7 0.2
v -0.3 1.7 0
v -0.2 1.7 0
v -0.3 1.7 -0.1
v -0.2 1.7 -0.1
v 0 1.7 -0.2
v 0.1 1.7 -0.2
v 0 1.7 -0.3
v 0.1 1.7 -0.3
v 0.2 1.8 0
v 0.3 1.8 0
v 0.2 1.8 -0.1
v 0.3 1.8 -0.1
v -0.1 -1.9 0.2
v 0.1 -1.9 0.2
v -0.2 -1.9 0.1
v -0.1 -1.9 0.1
v 0.1 -1.9 0.1
v 0.2 -1.9 0.1
v -0.2 -1.9 -0.1
v -0.1 -1.9 -0.1
v 0.1 -1.9 -0.1
v 0.2 -1.9 -0.1
v -0.1 -1.9 -0.2
v 0.1 -1.9 -0.2
v -0.2 1.1 0.3
v -0.1 1.1 0.3
v -0.2 1.1 0.2
v -0.1 1.1 0.2
v -0.1 1.1 -0.2
v 0 1.1 -0.2
v -0.1 1.1 -0.3
v 0 1.1 -0.3
v 0.1 1.2 0.3
v 0.2 1.2 0.3
v 0.1 1.2 0.2
v 0.2 1.2 0.2
v 0.2 1.2 0
v 0.3 1.2 0
v 0.2 1.2 -0.1
v 0.3 1.2 -0.1
v -0.3 1.3 0
v -0.2 1.3 0
v -0.3 1.3 -0.1
v -0.2 1.3 -0.1
v 0 1.4 -0.2
v 0.1 1.4 -0.2
v 0 1.4 -0.3
v 0.1 1.4 -0.3
v -0.1 1.5 0.3
v 0 1.5 0.3
v -0.1 1.5 0.2
v 0 1.5 0.2
v -0.3 1.6 0.2
v -0.2 1.6 0.2
v -0.3 1.6 0.1
v -0.2 1.6 0.1
v 0.2 1.6 0.1
v 0.3 1.6 0.1
v 0.2 1.6 0
v 0.3 1.6 0
v -0.2 1.6 -0.2
v -0.1 1.6 -0.2
v -0.2 1.6 -0.3
v -0.1 1.6 -0.3
v -0.1 1.8 0.3
v 0 1.8 0.3
v -0.1 1.8 0.2
v 0 1.8 0.2
v -0.3 1.8 0
v -0.2 1.8 0
v -0.3 1.8 -0.1
v -0.2 1.8 -0.1
v 0 1.8 -0.2
v 0.1 1.8 -0.2
v 0 1.8 -0.3
v 0.1 1.8 -0.3
v -0.2 1.9 0.2
v -0.1 1.9 0.2
v -0.2 1.9 0.1
v -0.1 1.9 0.1
v 0.2 1.9 0
v 0.3 1.9 0
v -0.2 1.9 -0.1
v -0.1 1.9 -0.1
v 0.1 1.9 -0.1
v 0.2 1.9 -0.1
v 0.3 1.9 -0.1
v -0.2 1.9 -0.2
v -0.1 1.9 -0.2
v 0.1 1.9 -0.2
v 0.2 1.9 -0.2
v -0.1 2 0.2
v 0.1 2 0.2
v 0.2 2 0.2
v -0.2 2 0.1
v -0.1 2 0.1
v 0 2 0.1
v 0.1 2 0.1
v 0.2 2 0.1
v -0.2 2 0
v -0.1 2 0
v 0 2 0
v 0.1 2 0
v -0.1 2 -0.1
v 0.1 2 -0.1
v 0.2 2 -0.1
v -0.1 2 -0.2
v 0.1 2 -0.2
v 0 2.1 0.1
v 0.1 2.1 0.1
v -0.2 2.1 0
v -0.1 2.1 0
v 0 2.1 0
v 0.1 2.1 0
v -0.2 2.1 -0.1
v -0.1 2.1 -0.1

# faces
f 3/3/1 2/3/1 1/3/1
f 4/3/1 2/3/1 3/3/1
f 7/3/1 6/3/1 5/3/1
f 8/3/1 6/3/1 7/3/1
f 11/3/1 10/3/1 9/3/1
f 12/3/1 10/3/1 11/3/1
f 15/1/1 14/1/1 13/1/1
f 16/1/1 14/1/1 15/1/1
f 20/1/1 18/1/1 17/1/1
f 21/1/1 18/1/1 20/1/1
f 24/1/1 21/1/1 20/1/1
f 24/1/1 22/1/1 21/1/1
f 24/1/1 20/1/1 19/1/1
f 25/3/1 24/3/1 23/3/1
f 26/1/1 22/1/1 24/1/1
f 26/3/1 24/3/1 25/3/1
f 27/1/1 22/1/1 26/1/1
f 28/1/1 22/1/1 27/1/1
f 29/1/1 27/1/1 26/1/1
f 30/1/1 22/1/1 28/1/1
f 31/1/1 29/1/1 26/1/1
f 31/1/1 30/1/1 29/1/1
f 32/1/1 30/1/1 31/1/1
f 33/1/1 22/1/1 30/1/1
f 33/1/1 30/1/1 32/1/1
f 36/1/1 33/1/1 32/1/1
f 37/3/1 34/3/1 33/3/1
f 37/1/1 33/1/1 36/1/1
f 38/3/1 34/3/1 37/3/1
f 39/1/1 36/1/1 35/1/1
f 39/1/1 37/1/1 36/1/1
f 40/1/1 37/1/1 39/1/1
f 41/1/1 39/1/1 35/1/1
f 42/1/1 37/1/1 40/1/1
f 43/1/1 41/1/1 35/1/1
f 43/1/1 42/1/1 41/1/1
f 44/1/1 42/1/1 43/1/1
f 45/1/1 37/1/1 42/1/1
f 45/1/1 42/1/1 44/1/1
f 46/1/1 37/1/1 45/1/1
f 47/1/1 45/1/1 44/1/1
f 48/1/1 45/1/1 47/1/1
f 49/1/1 45/1/1 48/1/1
f 50/3/1 49/3/1 48/3/1
f 51/3/1 49/3/1 50/3/1
f 56/1/1 53/1/1 52/1/1
f 57/1/1 53/1/1 56/1/1
f 58/1/1 55/1/1 54/1/1
f 59/1/1 55/1/1 58/1/1
f 60/1/1 58/1/1 57/1/1
f 61/1/1 58/1/1 60/1/1
f 62/2/1 61/2/1 60/2/1
f 63/2/1 61/2/1 62/2/1
f 65/1/1 63/1/1 62/1/1
f 66/1/1 63/1/1 65/1/1
f 68/1/1 65/1/1 64/1/1
f 69/1/1 65/1/1 68/1/1
f 70/1/1 67/1/1 66/1/1
f 71/1/1 67/1/1 70/1/1
f 74/3/1 73/3/1 72/3/1
f 75/3/1 73/3/1 74/3/1
f 78/3/1 77/3/1 76/3/1
f 79/3/1 77/3/1 78/3/1
f 82/3/1 81/3/1 80/3/1
f 83/3/1 81/3/1 82/3/1
f 88/1/1 85/1/1 84/1/1
f 89/1/1 85/1/1 88/1/1
f 90/1/1 87/1/1 86/1/1
f 91/1/1 87/1/1 90/1/1
f 94/3/1 93/3/1 92/3/1
f 95/3/1 93/3/1 94/3/1
f 98/3/1 97/3/1 96/3/1
f 99/3/1 97/3/1 98/3/1
f 102/3/1 101/3/1 100/3/1
f 103/3/1 101/3/1 102/3/1
f 106/3/1 105/3/1 104/3/1
f 107/3/1 105/3/1 106/3/1
f 108/3/2 109/3/2 110/3/2
f 110/3/2 109/3/2 111/3/2
f 112/3/2 113/3/2 114/3/2
f 114/3/2 113/3/2 115/3/2
f 116/3/2 117/3/2 118/3/2
f 118/3/2 117/3/2 119/3/2
f 120/3/2 121/3/2 122/3/2
f 122/3/2 121/3/2 123/3/2
f 124/3/2 125/3/2 126/3/2
f 126/3/2 125/3/2 127/3/2
f 128/3/2 129/3/2 130/3/2
f 130/3/2 129/3/2 131/3/2
f 132/1/2 133/1/2 136/1/2
f 136/1/2 133/1/2 137/1/2
f 134/1/2 135/1/2 138/1/2
f 138/1/2 135/1/2 139/1/2
f 137/1/2 138/1/2 140/1/2
f 140/1/2 138/1/2 141/1/2
f 140/2/2 141/2/2 142/2/2
f 142/2/2 141/2/2 143/2/2
f 142/1/2 143/1/2 145/1/2
f 145/1/2 143/1/2 146/1/2
f 144/1/2 145/1/2 148/1/2
f 148/1/2 145/1/2 149/1/2
f 146/1/2 147/1/2 150/1/2
f 150/1/2 147/1/2 151/1/2
f 152/3/2 153/3/2 154/3/2
f 154/3/2 153/3/2 155/3/2
f 156/3/2 157/3/2 158/3/2
f 158/3/2 157/3/2 159/3/2
f 160/1/2 161/1/2 164/1/2
f 164/1/2 161/1/2 165/1/2
f 162/3/2 163/3/2 166/3/2
f 166/3/2 163/3/2 167/3/2
f 168/1/2 169/1/2 170/1/2
f 170/1/2 169/1/2 171/1/2
f 172/1/2 173/1/2 175/1/2
f 175/1/2 173/1/2 176/1/2
f 175/1/2 176/1/2 179/1/2
f 176/1/2 177/1/2 179/1/2
f 174/1/2 175/1/2 179/1/2
f 179/1/2 177/1/2 180/1/2
f 180/1/2 177/1/2 181/1/2
f 178/3/2 179/3/2 182/3/2
f 179/1/2 180/1/2 183/1/2
f 182/3/2 179/3/2 183/3/2
f 183/1/2 180/1/2 184/1/2
f 181/1/2 177/1/2 185/1/2
f 183/1/2 184/1/2 186/1/2
f 184/1/2 185/1/2 186/1/2
f 186/1/2 185/1/2 187/1/2
f 183/1/2 186/1/2 188/1/2
f 187/1/2 185/1/2 189/1/2
f 189/1/2 185/1/2 190/1/2
f 188/1/2 189/1/2 190/1/2
f 185/1/2 177/1/2 191/1/2
f 190/1/2 185/1/2 191/1/2
f 188/1/2 190/1/2 192/1/2
f 183/1/2 188/1/2 192/1/2
f 192/1/2 190/1/2 193/1/2
f 193/1/2 190/1/2 194/1/2
f 191/1/2 177/1/2 195/1/2
f 195/1/2 177/1/2 196/1/2
f 192/3/2 193/3/2 197/3/2
f 193/1/2 194/1/2 198/1/2
f 197/3/2 193/3/2 198/3/2
f 194/1/2 195/1/2 198/1/2
f 198/1/2 195/1/2 199/1/2
f 200/3/2 201/3/2 202/3/2
f 202/3/2 201/3/2 203/3/2
f 204/3/2 205/3/2 206/3/2
f 206/3/2 205/3/2 207/3/2
f 208/3/2 209/3/2 210/3/2
f 210/3/2 209/3/2 211/3/2
f 214/3/3 213/3/3 212/3/3
f 215/3/3 213/3/3 214/3/3
f 220/3/3 217/3/3 216/3/3
f 221/3/3 217/3/3 220/3/3
f 222/3/3 219/3/3 218/3/3
f 223/3/3 219/3/3 222/3/3
f 226/3/3 225/3/3 224/3/3
f 227/3/3 225/3/3 226/3/3
f 233/3/3 229/3/3 228/3/3
f 234/3/3 229/3/3 233/3/3
f 239/1/3 231/1/3 230/1/3
f 240/1/3 231/1/3 239/1/3
f 241/1/3 233/1/3 232/1/3
f 241/1/3 234/1/3 233/1/3
f 241/1/3 235/1/3 234/1/3
f 242/1/3 235/1/3 241/1/3
f 243/1/3 235/1/3 242/1/3
f 244/1/3 235/1/3 243/1/3
f 245/1/3 235/1/3 244/1/3
f 246/1/3 235/1/3 245/1/3
f 248/1/3 240/1/3 239/1/3
f 248/1/3 239/1/3 238/1/3
f 248/1/3 241/1/3 240/1/3
f 248/1/3 242/1/3 241/1/3
f 249/1/3 244/1/3 243/1/3
f 250/1/3 244/1/3 249/1/3
f 251/1/3 247/1/3 246/1/3
f 251/1/3 246/1/3 245/1/3
f 252/1/3 237/1/3 236/1/3
f 253/1/3 237/1/3 252/1/3
f 254/1/3 251/1/3 250/1/3
f 254/1/3 250/1/3 249/1/3
f 254/1/3 249/1/3 248/1/3
f 254/1/3 248/1/3 238/1/3
f 255/1/3 251/1/3 254/1/3
f 256/1/3 251/1/3 255/1/3
f 257/1/3 251/1/3 256/1/3
f 258/1/3 247/1/3 251/1/3
f 258/1/3 251/1/3 257/1/3
f 259/1/3 247/1/3 258/1/3
f 260/1/3 256/1/3 255/1/3
f 261/1/3 256/1/3 260/1/3
f 262/1/3 258/1/3 257/1/3
f 263/3/3 259/3/3 258/3/3
f 263/1/3 258/1/3 262/1/3
f 264/3/3 259/3/3 263/3/3
f 271/1/3 266/1/3 265/1/3
f 272/1/3 266/1/3 271/1/3
f 275/1/3 268/1/3 267/1/3
f 276/1/3 268/1/3 275/1/3
f 277/1/3 270/1/3 269/1/3
f 278/1/3 270/1/3 277/1/3
f 282/1/3 273/1/3 272/1/3
f 283/2/3 274/2/3 273/2/3
f 283/1/3 273/1/3 282/1/3
f 284/1/3 275/1/3 274/1/3
f 284/2/3 274/2/3 283/2/3
f 285/1/3 275/1/3 284/1/3
f 287/3/3 280/3/3 279/3/3
f 288/3/3 280/3/3 287/3/3
f 289/1/3 282/1/3 281/1/3
f 290/1/3 282/1/3 289/1/3
f 291/1/3 286/1/3 285/1/3
f 292/1/3 286/1/3 291/1/3
f 295/3/3 294/3/3 293/3/3
f 296/3/3 294/3/3 295/3/3
f 301/3/3 298/3/3 297/3/3
f 302/3/3 298/3/3 301/3/3
f 303/3/3 300/3/3 299/3/3
f 304/3/3 300/3/3 303/3/3
f 307/3/3 306/3/3 305/3/3
f 308/3/3 306/3/3 307/3/3
f 313/3/3 310/3/3 309/3/3
f 314/3/3 310/3/3 313/3/3
f 315/3/3 312/3/3 311/3/3
f 316/3/3 312/3/3 315/3/3
f 317/3/4 318/3/4 319/3/4
f 319/3/4 318/3/4 320/3/4
f 321/3/4 322/3/4 323/3/4
f 323/3/4 322/3/4 324/3/4
f 325/3/4 326/3/4 327/3/4
f 327/3/4 326/3/4 328/3/4
f 329/3/4 330/3/4 337/3/4
f 337/3/4 330/3/4 338/3/4
f 331/3/4 332/3/4 339/3/4
f 339/3/4 332/3/4 340/3/4
f 333/1/4 334/1/4 344/1/4
f 344/1/4 334/1/4 345/1/4
f 335/1/4 336/1/4 348/1/4
f 348/1/4 336/1/4 349/1/4
f 341/1/4 342/1/4 350/1/4
f 342/3/4 343/3/4 351/3/4
f 350/1/4 342/1/4 351/1/4
f 351/3/4 343/3/4 352/3/4
f 345/1/4 346/1/4 354/1/4
f 346/2/4 347/2/4 355/2/4
f 354/1/4 346/1/4 355/1/4
f 347/1/4 348/1/4 356/1/4
f 355/2/4 347/2/4 356/2/4
f 356/1/4 348/1/4 357/1/4
f 353/1/4 354/1/4 361/1/4
f 361/1/4 354/1/4 362/1/4
f 357/1/4 358/1/4 363/1/4
f 363/1/4 358/1/4 364/1/4
f 359/1/4 360/1/4 368/1/4
f 368/1/4 360/1/4 369/1/4
f 365/3/4 366/3/4 370/3/4
f 370/3/4 366/3/4 371/3/4
f 367/3/4 368/3/4 372/3/4
f 372/3/4 368/3/4 373/3/4
f 374/1/4 375/1/4 381/1/4
f 381/1/4 375/1/4 382/1/4
f 382/1/4 375/1/4 383/1/4
f 383/1/4 375/1/4 384/1/4
f 376/1/4 377/1/4 385/1/4
f 385/1/4 377/1/4 386/1/4
f 380/1/4 381/1/4 388/1/4
f 381/1/4 382/1/4 388/1/4
f 383/1/4 384/1/4 389/1/4
f 386/1/4 387/1/4 389/1/4
f 385/1/4 386/1/4 389/1/4
f 384/1/4 385/1/4 389/1/4
f 389/1/4 387/1/4 390/1/4
f 390/1/4 387/1/4 391/1/4
f 391/1/4 387/1/4 392/1/4
f 392/1/4 387/1/4 393/1/4
f 378/1/4 379/1/4 394/1/4
f 394/1/4 379/1/4 395/1/4
f 380/1/4 388/1/4 396/1/4
f 388/1/4 389/1/4 396/1/4
f 389/1/4 390/1/4 396/1/4
f 396/1/4 390/1/4 397/1/4
f 397/1/4 390/1/4 398/1/4
f 391/1/4 392/1/4 399/1/4
f 399/1/4 392/1/4 400/1/4
f 393/1/4 387/1/4 401/1/4
f 401/1/4 387/1/4 402/1/4
f 402/1/4 387/1/4 403/1/4
f 399/1/4 400/1/4 404/1/4
f 401/1/4 402/1/4 404/1/4
f 400/1/4 401/1/4 404/1/4
f 397/1/4 398/1/4 404/1/4
f 398/1/4 399/1/4 404/1/4
f 404/1/4 402/1/4 405/1/4
f 406/3/4 407/3/4 410/3/4
f 410/3/4 407/3/4 411/3/4
f 408/3/4 409/3/4 412/3/4
f 412/3/4 409/3/4 413/3/4
f 414/3/4 415/3/4 418/3/4
f 418/3/4 415/3/4 419/3/4
f 416/3/4 417/3/4 420/3/4
f 420/3/4 417/3/4 421/3/4
f 425/1/5 423/1/5 422/1/5
f 426/1/5 423/1/5 425/1/5
f 428/1/5 425/1/5 424/1/5
f 428/1/5 427/1/5 426/1/5
f 428/1/5 426/1/5 425/1/5
f 429/1/5 427/1/5 428/1/5
f 430/1/5 427/1/5 429/1/5
f 431/1/5 427/1/5 430/1/5
f 432/1/5 430/1/5 429/1/5
f 433/1/5 430/1/5 432/1/5
f 437/1/5 435/1/5 434/1/5
f 438/1/5 435/1/5 437/1/5
f 440/1/5 437/1/5 436/1/5
f 441/1/5 437/1/5 440/1/5
f 442/1/5 439/1/5 438/1/5
f 443/1/5 439/1/5 442/1/5
f 444/1/5 442/1/5 441/1/5
f 445/1/5 442/1/5 444/1/5
f 450/1/5 447/1/5 446/1/5
f 451/1/5 447/1/5 450/1/5
f 452/1/5 449/1/5 448/1/5
f 453/1/5 449/1/5 452/1/5
f 458/1/5 455/1/5 454/1/5
f 459/1/5 455/1/5 458/1/5
f 460/1/5 457/1/5 456/1/5
f 461/1/5 457/1/5 460/1/5
f 464/3/5 463/3/5 462/3/5
f 465/3/5 463/3/5 464/3/5
f 468/3/5 467/3/5 466/3/5
f 469/3/5 467/3/5 468/3/5
f 472/3/5 471/3/5 470/3/5
f 473/3/5 471/3/5 472/3/5
f 476/3/5 475/3/5 474/3/5
f 477/3/5 475/3/5 476/3/5
f 480/3/5 479/3/5 478/3/5
f 481/3/5 479/3/5 480/3/5
f 484/3/5 483/3/5 482/3/5
f 485/3/5 483/3/5 484/3/5
f 488/3/5 487/3/5 486/3/5
f 489/3/5 487/3/5 488/3/5
f 492/3/5 491/3/5 490/3/5
f 493/3/5 491/3/5 492/3/5
f 496/3/5 495/3/5 494/3/5
f 497/3/5 495/3/5 496/3/5
f 500/3/5 499/3/5 498/3/5
f 501/3/5 499/3/5 500/3/5
f 504/3/5 503/3/5 502/3/5
f 505/3/5 503/3/5 504/3/5
f 508/3/5 507/3/5 506/3/5
f 509/3/5 507/3/5 508/3/5
f 512/3/5 511/3/5 510/3/5
f 513/3/5 511/3/5 512/3/5
f 516/3/5 515/3/5 514/3/5
f 517/3/5 515/3/5 516/3/5
f 518/1/6 519/1/6 521/1/6
f 521/1/6 519/1/6 522/1/6
f 520/1/6 521/1/6 524/1/6
f 524/1/6 521/1/6 525/1/6
f 522/1/6 523/1/6 526/1/6
f 526/1/6 523/1/6 527/1/6
f 525/1/6 526/1/6 528/1/6
f 528/1/6 526/1/6 529/1/6
f 530/3/6 531/3/6 532/3/6
f 532/3/6 531/3/6 533/3/6
f 534/3/6 535/3/6 536/3/6
f 536/3/6 535/3/6 537/3/6
f 538/3/6 539/3/6 540/3/6
f 540/3/6 539/3/6 541/3/6
f 542/3/6 543/3/6 544/3/6
f 544/3/6 543/3/6 545/3/6
f 546/3/6 547/3/6 548/3/6
f 548/3/6 547/3/6 549/3/6
f 550/3/6 551/3/6 552/3/6
f 552/3/6 551/3/6 553/3/6
f 554/3/6 555/3/6 556/3/6
f 556/3/6 555/3/6 557/3/6
f 558/3/6 559/3/6 560/3/6
f 560/3/6 559/3/6 561/3/6
f 562/3/6 563/3/6 564/3/6
f 564/3/6 563/3/6 565/3/6
f 566/3/6 567/3/6 568/3/6
f 568/3/6 567/3/6 569/3/6
f 570/3/6 571/3/6 572/3/6
f 572/3/6 571/3/6 573/3/6
f 574/3/6 575/3/6 576/3/6
f 576/3/6 575/3/6 577/3/6
f 578/3/6 579/3/6 580/3/6
f 580/3/6 579/3/6 581/3/6
f 582/1/6 583/1/6 584/1/6
f 584/1/6 583/1/6 585/1/6
f 586/3/6 587/3/6 591/3/6
f 591/3/6 587/3/6 592/3/6
f 588/1/6 589/1/6 593/1/6
f 593/1/6 589/1/6 594/1/6
f 590/1/6 591/1/6 595/1/6
f 595/1/6 591/1/6 596/1/6
f 597/1/6 598/1/6 601/1/6
f 601/1/6 598/1/6 602/1/6
f 598/3/6 599/3/6 603/3/6
f 602/1/6 598/1/6 603/1/6
f 603/3/6 599/3/6 604/3/6
f 601/1/6 602/1/6 605/1/6
f 600/1/6 601/1/6 605/1/6
f 605/1/6 602/1/6 606/1/6
f 606/1/6 602/1/6 607/1/6
f 603/1/6 604/1/6 608/1/6
f 606/1/6 607/1/6 609/1/6
f 607/1/6 608/1/6 609/1/6
f 608/1/6 604/1/6 610/1/6
f 609/1/6 608/1/6 610/1/6
f 610/1/6 604/1/6 611/1/6
f 609/1/6 610/1/6 612/1/6
f 612/1/6 610/1/6 613/1/6
f 614/3/6 615/3/6 618/3/6
f 618/3/6 615/3/6 619/3/6
f 616/3/6 617/3/6 620/3/6
f 620/3/6 617/3/6 621/3/6
