# MagicaVoxel @ Ephtracy

# group
o 

# material
mtllib Gun.mtl
usemtl palette

# normals
vn -1 0 0
vn 1 0 0
vn 0 0 1
vn 0 0 -1
vn 0 -1 0
vn 0 1 0

# texcoords
vt 0.537109 0.5
vt 0.869141 0.5
vt 0.982422 0.5
vt 0.986328 0.5
vt 0.994141 0.5

# verts
v -0.3 0 0.6
v -0.3 0 0.5
v -0.3 0 0.4
v -0.3 0.4 0.6
v -0.3 0.4 0.5
v -0.3 0.4 0.4
v -0.3 0.4 0.3
v -0.3 0.6 0.4
v -0.3 0.6 0.3
v -0.3 0.7 0.4
v -0.3 0.7 0.3
v -0.3 0.7 -0.7
v -0.3 0.8 0.5
v -0.3 0.8 0.4
v -0.3 0.9 0.4
v -0.3 0.9 -0.7
v -0.2 0 0.7
v -0.2 0 0.6
v -0.2 0 0.4
v -0.2 0 0.3
v -0.2 0.3 0.7
v -0.2 0.3 0.6
v -0.2 0.4 0.6
v -0.2 0.4 0.5
v -0.2 0.4 0.4
v -0.2 0.4 0.3
v -0.2 0.4 0.2
v -0.2 0.6 0.3
v -0.2 0.6 0.2
v -0.2 0.6 -0.6
v -0.2 0.6 -0.7
v -0.2 0.7 0.6
v -0.2 0.7 0.5
v -0.2 0.7 0.3
v -0.2 0.7 -0.6
v -0.2 0.7 -0.7
v -0.2 0.8 0.6
v -0.2 0.8 0.5
v -0.2 0.8 0.4
v -0.2 0.9 0.5
v -0.2 0.9 0.4
v -0.2 0.9 -0.6
v -0.2 0.9 -0.7
v -0.2 1 0.4
v -0.2 1 -0.6
v -0.2 1 -0.7
v 2.98023e-08 0 0.7
v 2.98023e-08 0 0.6
v 2.98023e-08 0 0.4
v 2.98023e-08 0 0.3
v 2.98023e-08 0.3 0.7
v 2.98023e-08 0.3 0.6
v 2.98023e-08 0.4 0.6
v 2.98023e-08 0.4 0.5
v 2.98023e-08 0.4 0.4
v 2.98023e-08 0.4 0.3
v 2.98023e-08 0.4 0.2
v 2.98023e-08 0.6 0.3
v 2.98023e-08 0.6 0.2
v 2.98023e-08 0.6 -0.6
v 2.98023e-08 0.6 -0.7
v 2.98023e-08 0.7 0.6
v 2.98023e-08 0.7 0.5
v 2.98023e-08 0.7 0.3
v 2.98023e-08 0.7 -0.6
v 2.98023e-08 0.7 -0.7
v 2.98023e-08 0.8 0.6
v 2.98023e-08 0.8 0.5
v 2.98023e-08 0.8 0.4
v 2.98023e-08 0.9 0.5
v 2.98023e-08 0.9 0.4
v 2.98023e-08 0.9 -0.6
v 2.98023e-08 0.9 -0.7
v 2.98023e-08 1 0.4
v 2.98023e-08 1 -0.6
v 2.98023e-08 1 -0.7
v 0.1 0 0.6
v 0.1 0 0.5
v 0.1 0 0.4
v 0.1 0.4 0.6
v 0.1 0.4 0.5
v 0.1 0.4 0.4
v 0.1 0.4 0.3
v 0.1 0.7 0.4
v 0.1 0.7 0.3
v 0.1 0.7 -0.7
v 0.1 0.8 0.5
v 0.1 0.8 0.4
v 0.1 0.9 0.4
v 0.1 0.9 -0.7
v -0.2 0 0.7
v -0.2 0.3 0.7
v 2.98023e-08 0 0.7
v 2.98023e-08 0.3 0.7
v -0.3 0 0.6
v -0.3 0.4 0.6
v -0.2 0 0.6
v -0.2 0.3 0.6
v -0.2 0.4 0.6
v -0.2 0.7 0.6
v -0.2 0.8 0.6
v 2.98023e-08 0 0.6
v 2.98023e-08 0.3 0.6
v 2.98023e-08 0.4 0.6
v 2.98023e-08 0.7 0.6
v 2.98023e-08 0.8 0.6
v 0.1 0 0.6
v 0.1 0.4 0.6
v -0.3 0.4 0.5
v -0.3 0.8 0.5
v -0.2 0.4 0.5
v -0.2 0.7 0.5
v -0.2 0.8 0.5
v -0.2 0.9 0.5
v 2.98023e-08 0.4 0.5
v 2.98023e-08 0.7 0.5
v 2.98023e-08 0.8 0.5
v 2.98023e-08 0.9 0.5
v 0.1 0.4 0.5
v 0.1 0.8 0.5
v -0.3 0.8 0.4
v -0.3 0.9 0.4
v -0.2 0.8 0.4
v -0.2 0.9 0.4
v -0.2 1 0.4
v 2.98023e-08 0.8 0.4
v 2.98023e-08 0.9 0.4
v 2.98023e-08 1 0.4
v 0.1 0.8 0.4
v 0.1 0.9 0.4
v -0.3 0 0.4
v -0.3 0.4 0.4
v -0.2 0 0.4
v -0.2 0.4 0.4
v 2.98023e-08 0 0.4
v 2.98023e-08 0.4 0.4
v 0.1 0 0.4
v 0.1 0.4 0.4
v -0.3 0.4 0.3
v -0.3 0.6 0.3
v -0.3 0.7 0.3
v -0.2 0 0.3
v -0.2 0.4 0.3
v -0.2 0.6 0.3
v -0.2 0.7 0.3
v 2.98023e-08 0 0.3
v 2.98023e-08 0.4 0.3
v 2.98023e-08 0.6 0.3
v 2.98023e-08 0.7 0.3
v 0.1 0.4 0.3
v 0.1 0.7 0.3
v -0.2 0.4 0.2
v -0.2 0.6 0.2
v 2.98023e-08 0.4 0.2
v 2.98023e-08 0.6 0.2
v -0.3 0.7 -0.7
v -0.3 0.9 -0.7
v -0.2 0.6 -0.7
v -0.2 0.7 -0.7
v -0.2 0.9 -0.7
v -0.2 1 -0.7
v 2.98023e-08 0.6 -0.7
v 2.98023e-08 0.7 -0.7
v 2.98023e-08 0.9 -0.7
v 2.98023e-08 1 -0.7
v 0.1 0.7 -0.7
v 0.1 0.9 -0.7
v -0.2 0 0.7
v 2.98023e-08 0 0.7
v -0.3 0 0.6
v -0.2 0 0.6
v 2.98023e-08 0 0.6
v 0.1 0 0.6
v -0.3 0 0.5
v -0.2 0 0.5
v 2.98023e-08 0 0.5
v 0.1 0 0.5
v -0.3 0 0.4
v -0.2 0 0.4
v 2.98023e-08 0 0.4
v 0.1 0 0.4
v -0.2 0 0.3
v 2.98023e-08 0 0.3
v -0.3 0.4 0.4
v -0.2 0.4 0.4
v 2.98023e-08 0.4 0.4
v 0.1 0.4 0.4
v -0.3 0.4 0.3
v -0.2 0.4 0.3
v 2.98023e-08 0.4 0.3
v 0.1 0.4 0.3
v -0.2 0.4 0.2
v 2.98023e-08 0.4 0.2
v -0.2 0.6 0.2
v 2.98023e-08 0.6 0.2
v -0.2 0.6 -0.6
v 2.98023e-08 0.6 -0.6
v -0.2 0.6 -0.7
v 2.98023e-08 0.6 -0.7
v -0.3 0.7 0.3
v -0.2 0.7 0.3
v 2.98023e-08 0.7 0.3
v 0.1 0.7 0.3
v -0.2 0.7 -0.6
v 2.98023e-08 0.7 -0.6
v -0.3 0.7 -0.7
v -0.2 0.7 -0.7
v 2.98023e-08 0.7 -0.7
v 0.1 0.7 -0.7
v -0.2 0.3 0.7
v 2.98023e-08 0.3 0.7
v -0.2 0.3 0.6
v 2.98023e-08 0.3 0.6
v -0.3 0.4 0.6
v -0.2 0.4 0.6
v 2.98023e-08 0.4 0.6
v 0.1 0.4 0.6
v -0.3 0.4 0.5
v -0.2 0.4 0.5
v 2.98023e-08 0.4 0.5
v 0.1 0.4 0.5
v -0.2 0.8 0.6
v 2.98023e-08 0.8 0.6
v -0.3 0.8 0.5
v -0.2 0.8 0.5
v 2.98023e-08 0.8 0.5
v 0.1 0.8 0.5
v -0.3 0.8 0.4
v -0.2 0.8 0.4
v 2.98023e-08 0.8 0.4
v 0.1 0.8 0.4
v -0.2 0.9 0.5
v 2.98023e-08 0.9 0.5
v -0.3 0.9 0.4
v -0.2 0.9 0.4
v 2.98023e-08 0.9 0.4
v 0.1 0.9 0.4
v -0.2 0.9 -0.6
v 2.98023e-08 0.9 -0.6
v -0.3 0.9 -0.7
v -0.2 0.9 -0.7
v 2.98023e-08 0.9 -0.7
v 0.1 0.9 -0.7
v -0.2 1 0.4
v 2.98023e-08 1 0.4
v -0.2 1 -0.6
v 2.98023e-08 1 -0.6
v -0.2 1 -0.7
v 2.98023e-08 1 -0.7

# faces
f 4/1/1 2/1/1 1/1/1
f 5/2/1 3/2/1 2/2/1
f 5/1/1 2/1/1 4/1/1
f 6/2/1 3/2/1 5/2/1
f 8/1/1 7/1/1 6/1/1
f 8/2/1 6/2/1 5/2/1
f 9/1/1 7/1/1 8/1/1
f 10/2/1 8/2/1 5/2/1
f 10/4/1 9/4/1 8/4/1
f 11/4/1 9/4/1 10/4/1
f 13/2/1 10/2/1 5/2/1
f 14/3/1 11/3/1 10/3/1
f 14/2/1 10/2/1 13/2/1
f 14/3/1 12/3/1 11/3/1
f 15/3/1 12/3/1 14/3/1
f 16/3/1 12/3/1 15/3/1
f 21/1/1 18/1/1 17/1/1
f 22/1/1 18/1/1 21/1/1
f 25/1/1 20/1/1 19/1/1
f 26/1/1 20/1/1 25/1/1
f 28/1/1 27/1/1 26/1/1
f 29/1/1 27/1/1 28/1/1
f 32/1/1 24/1/1 23/1/1
f 33/1/1 24/1/1 32/1/1
f 34/4/1 29/4/1 28/4/1
f 34/4/1 30/4/1 29/4/1
f 35/3/1 31/3/1 30/3/1
f 35/4/1 30/4/1 34/4/1
f 36/3/1 31/3/1 35/3/1
f 37/4/1 33/4/1 32/4/1
f 38/4/1 33/4/1 37/4/1
f 40/4/1 39/4/1 38/4/1
f 41/4/1 39/4/1 40/4/1
f 44/4/1 42/4/1 41/4/1
f 45/3/1 43/3/1 42/3/1
f 45/4/1 42/4/1 44/4/1
f 46/3/1 43/3/1 45/3/1
f 47/1/2 48/1/2 51/1/2
f 51/1/2 48/1/2 52/1/2
f 49/1/2 50/1/2 55/1/2
f 55/1/2 50/1/2 56/1/2
f 56/1/2 57/1/2 58/1/2
f 58/1/2 57/1/2 59/1/2
f 53/1/2 54/1/2 62/1/2
f 62/1/2 54/1/2 63/1/2
f 58/4/2 59/4/2 64/4/2
f 59/4/2 60/4/2 64/4/2
f 60/3/2 61/3/2 65/3/2
f 64/4/2 60/4/2 65/4/2
f 65/3/2 61/3/2 66/3/2
f 62/4/2 63/4/2 67/4/2
f 67/4/2 63/4/2 68/4/2
f 68/4/2 69/4/2 70/4/2
f 70/4/2 69/4/2 71/4/2
f 71/4/2 72/4/2 74/4/2
f 72/3/2 73/3/2 75/3/2
f 74/4/2 72/4/2 75/4/2
f 75/3/2 73/3/2 76/3/2
f 77/1/2 78/1/2 80/1/2
f 78/2/2 79/2/2 81/2/2
f 80/1/2 78/1/2 81/1/2
f 81/2/2 79/2/2 82/2/2
f 82/1/2 83/1/2 84/1/2
f 81/2/2 82/2/2 84/2/2
f 84/1/2 83/1/2 85/1/2
f 81/2/2 84/2/2 87/2/2
f 85/3/2 86/3/2 88/3/2
f 87/2/2 84/2/2 88/2/2
f 84/3/2 85/3/2 88/3/2
f 88/3/2 86/3/2 89/3/2
f 89/3/2 86/3/2 90/3/2
f 93/1/3 92/1/3 91/1/3
f 94/1/3 92/1/3 93/1/3
f 97/1/3 96/1/3 95/1/3
f 98/1/3 96/1/3 97/1/3
f 99/1/3 96/1/3 98/1/3
f 103/1/3 99/1/3 98/1/3
f 103/1/3 100/1/3 99/1/3
f 104/1/3 100/1/3 103/1/3
f 105/4/3 101/4/3 100/4/3
f 105/1/3 100/1/3 104/1/3
f 106/4/3 101/4/3 105/4/3
f 107/1/3 104/1/3 103/1/3
f 107/1/3 103/1/3 102/1/3
f 108/1/3 104/1/3 107/1/3
f 111/2/3 110/2/3 109/2/3
f 112/2/3 110/2/3 111/2/3
f 113/2/3 110/2/3 112/2/3
f 117/4/3 114/4/3 113/4/3
f 118/4/3 114/4/3 117/4/3
f 119/2/3 116/2/3 115/2/3
f 119/2/3 117/2/3 116/2/3
f 120/2/3 117/2/3 119/2/3
f 123/3/3 122/3/3 121/3/3
f 124/3/3 122/3/3 123/3/3
f 127/4/3 125/4/3 124/4/3
f 128/4/3 125/4/3 127/4/3
f 129/3/3 127/3/3 126/3/3
f 130/3/3 127/3/3 129/3/3
f 131/2/4 132/2/4 133/2/4
f 133/2/4 132/2/4 134/2/4
f 135/2/4 136/2/4 137/2/4
f 137/2/4 136/2/4 138/2/4
f 139/1/4 140/1/4 143/1/4
f 140/4/4 141/4/4 144/4/4
f 143/1/4 140/1/4 144/1/4
f 144/4/4 141/4/4 145/4/4
f 142/1/4 143/1/4 146/1/4
f 146/1/4 143/1/4 147/1/4
f 148/1/4 149/1/4 150/1/4
f 147/1/4 148/1/4 150/1/4
f 150/1/4 149/1/4 151/1/4
f 152/1/4 153/1/4 154/1/4
f 154/1/4 153/1/4 155/1/4
f 156/3/4 157/3/4 159/3/4
f 159/3/4 157/3/4 160/3/4
f 158/3/4 159/3/4 162/3/4
f 159/5/4 160/5/4 163/5/4
f 162/3/4 159/3/4 163/3/4
f 160/3/4 161/3/4 164/3/4
f 163/5/4 160/5/4 164/5/4
f 164/3/4 161/3/4 165/3/4
f 163/3/4 164/3/4 166/3/4
f 166/3/4 164/3/4 167/3/4
f 171/1/5 169/1/5 168/1/5
f 172/1/5 169/1/5 171/1/5
f 174/1/5 171/1/5 170/1/5
f 174/1/5 173/1/5 172/1/5
f 174/1/5 172/1/5 171/1/5
f 175/1/5 173/1/5 174/1/5
f 176/1/5 173/1/5 175/1/5
f 177/1/5 173/1/5 176/1/5
f 178/2/5 175/2/5 174/2/5
f 179/4/5 176/4/5 175/4/5
f 179/2/5 175/2/5 178/2/5
f 180/2/5 177/2/5 176/2/5
f 180/4/5 176/4/5 179/4/5
f 181/2/5 177/2/5 180/2/5
f 182/1/5 180/1/5 179/1/5
f 183/1/5 180/1/5 182/1/5
f 188/1/5 185/1/5 184/1/5
f 189/1/5 185/1/5 188/1/5
f 190/1/5 187/1/5 186/1/5
f 191/1/5 187/1/5 190/1/5
f 192/1/5 190/1/5 189/1/5
f 193/1/5 190/1/5 192/1/5
f 196/4/5 195/4/5 194/4/5
f 197/4/5 195/4/5 196/4/5
f 198/3/5 197/3/5 196/3/5
f 199/3/5 197/3/5 198/3/5
f 204/3/5 201/3/5 200/3/5
f 205/3/5 203/3/5 202/3/5
f 206/3/5 204/3/5 200/3/5
f 207/3/5 204/3/5 206/3/5
f 208/3/5 203/3/5 205/3/5
f 209/3/5 203/3/5 208/3/5
f 210/1/6 211/1/6 212/1/6
f 212/1/6 211/1/6 213/1/6
f 214/1/6 215/1/6 218/1/6
f 218/1/6 215/1/6 219/1/6
f 216/1/6 217/1/6 220/1/6
f 220/1/6 217/1/6 221/1/6
f 222/4/6 223/4/6 225/4/6
f 225/4/6 223/4/6 226/4/6
f 224/2/6 225/2/6 228/2/6
f 228/2/6 225/2/6 229/2/6
f 226/2/6 227/2/6 230/2/6
f 230/2/6 227/2/6 231/2/6
f 232/4/6 233/4/6 235/4/6
f 235/4/6 233/4/6 236/4/6
f 234/3/6 235/3/6 238/3/6
f 236/3/6 237/3/6 239/3/6
f 234/3/6 238/3/6 240/3/6
f 240/3/6 238/3/6 241/3/6
f 239/3/6 237/3/6 242/3/6
f 242/3/6 237/3/6 243/3/6
f 244/4/6 245/4/6 246/4/6
f 246/4/6 245/4/6 247/4/6
f 246/3/6 247/3/6 248/3/6
f 248/3/6 247/3/6 249/3/6
