# MagicaVoxel @ Ephtracy

# group
o 

# material
mtllib rat-3.mtl
usemtl palette

# normals
vn -1 0 0
vn 1 0 0
vn 0 0 1
vn 0 0 -1
vn 0 -1 0
vn 0 1 0

# texcoords
vt 0.720703 0.5
vt 0.751953 0.5
vt 0.826172 0.5

# verts
v -0.4 -0.1 0
v -0.4 -0.1 -0.1
v -0.4 0 0
v -0.4 0 -0.1
v -0.3 -0.2 0
v -0.3 -0.2 -0.1
v -0.3 -0.1 0.1
v -0.3 -0.1 0
v -0.3 -0.1 -0.1
v -0.3 -0.1 -0.2
v -0.3 0 0.1
v -0.3 0 0
v -0.3 0 -0.1
v -0.3 0 -0.2
v -0.3 0.1 0
v -0.3 0.1 -0.1
v 0 0 0
v 0 0 -0.1
v 0 0.1 0
v 0 0.1 -0.1
v 0 0.2 0
v 0 0.2 -0.1
v 0.1 0.1 0.1
v 0.1 0.1 0
v 0.1 0.1 -0.1
v 0.1 0.1 -0.2
v 0.1 0.2 0.1
v 0.1 0.2 0
v 0.1 0.2 -0.1
v 0.1 0.2 -0.2
v 0.1 0.3 0
v 0.1 0.3 -0.1
v -0.2 -0.2 0
v -0.2 -0.2 -0.1
v -0.2 -0.1 0.1
v -0.2 -0.1 0
v -0.2 -0.1 -0.1
v -0.2 -0.1 -0.2
v -0.2 0 0.1
v -0.2 0 0
v -0.2 0 -0.1
v -0.2 0 -0.2
v -0.2 0.1 0
v -0.2 0.1 -0.1
v 0.1 -0.1 0
v 0.1 -0.1 -0.1
v 0.1 0 0
v 0.1 0 -0.1
v 0.2 0 0
v 0.2 0 -0.1
v 0.2 0.1 0
v 0.2 0.1 -0.1
v 0.3 0.1 0.1
v 0.3 0.1 0
v 0.3 0.1 -0.1
v 0.3 0.1 -0.2
v 0.3 0.2 0.1
v 0.3 0.2 0
v 0.3 0.2 -0.1
v 0.3 0.2 -0.2
v 0.3 0.3 0
v 0.3 0.3 -0.1
v 0.4 0.1 0
v 0.4 0.1 -0.1
v 0.4 0.2 0
v 0.4 0.2 -0.1
v -0.3 -0.1 0.1
v -0.3 0 0.1
v -0.2 -0.1 0.1
v -0.2 0 0.1
v 0.1 0.1 0.1
v 0.1 0.2 0.1
v 0.3 0.1 0.1
v 0.3 0.2 0.1
v -0.4 -0.1 0
v -0.4 0 0
v -0.3 -0.2 0
v -0.3 -0.1 0
v -0.3 0 0
v -0.3 0.1 0
v -0.2 -0.2 0
v -0.2 -0.1 0
v -0.2 0 0
v -0.2 0.1 0
v 0 -0.1 0
v 0 0 0
v 0 0.1 0
v 0 0.2 0
v 0.1 -0.1 0
v 0.1 0 0
v 0.1 0.1 0
v 0.1 0.2 0
v 0.1 0.3 0
v 0.2 0 0
v 0.2 0.1 0
v 0.3 0.1 0
v 0.3 0.2 0
v 0.3 0.3 0
v 0.4 0.1 0
v 0.4 0.2 0
v -0.4 -0.1 -0.1
v -0.4 0 -0.1
v -0.3 -0.2 -0.1
v -0.3 -0.1 -0.1
v -0.3 0 -0.1
v -0.3 0.1 -0.1
v -0.2 -0.2 -0.1
v -0.2 -0.1 -0.1
v -0.2 0 -0.1
v -0.2 0.1 -0.1
v 0 -0.1 -0.1
v 0 0 -0.1
v 0 0.1 -0.1
v 0 0.2 -0.1
v 0.1 -0.1 -0.1
v 0.1 0 -0.1
v 0.1 0.1 -0.1
v 0.1 0.2 -0.1
v 0.1 0.3 -0.1
v 0.2 0 -0.1
v 0.2 0.1 -0.1
v 0.3 0.1 -0.1
v 0.3 0.2 -0.1
v 0.3 0.3 -0.1
v 0.4 0.1 -0.1
v 0.4 0.2 -0.1
v -0.3 -0.1 -0.2
v -0.3 0 -0.2
v -0.2 -0.1 -0.2
v -0.2 0 -0.2
v 0.1 0.1 -0.2
v 0.1 0.2 -0.2
v 0.3 0.1 -0.2
v 0.3 0.2 -0.2
v -0.3 -0.2 0
v -0.2 -0.2 0
v -0.3 -0.2 -0.1
v -0.2 -0.2 -0.1
v -0.3 -0.1 0.1
v -0.2 -0.1 0.1
v -0.4 -0.1 0
v -0.3 -0.1 0
v -0.2 -0.1 0
v 0 -0.1 0
v 0.1 -0.1 0
v -0.4 -0.1 -0.1
v -0.3 -0.1 -0.1
v -0.2 -0.1 -0.1
v 0 -0.1 -0.1
v 0.1 -0.1 -0.1
v -0.3 -0.1 -0.2
v -0.2 -0.1 -0.2
v 0.1 0 0
v 0.2 0 0
v 0.1 0 -0.1
v 0.2 0 -0.1
v 0.1 0.1 0.1
v 0.3 0.1 0.1
v 0.1 0.1 0
v 0.2 0.1 0
v 0.3 0.1 0
v 0.4 0.1 0
v 0.1 0.1 -0.1
v 0.2 0.1 -0.1
v 0.3 0.1 -0.1
v 0.4 0.1 -0.1
v 0.1 0.1 -0.2
v 0.3 0.1 -0.2
v -0.3 0 0.1
v -0.2 0 0.1
v -0.4 0 0
v -0.3 0 0
v -0.2 0 0
v 0 0 0
v -0.4 0 -0.1
v -0.3 0 -0.1
v -0.2 0 -0.1
v 0 0 -0.1
v -0.3 0 -0.2
v -0.2 0 -0.2
v -0.3 0.1 0
v -0.2 0.1 0
v -0.3 0.1 -0.1
v -0.2 0.1 -0.1
v 0.1 0.2 0.1
v 0.3 0.2 0.1
v 0 0.2 0
v 0.1 0.2 0
v 0.3 0.2 0
v 0.4 0.2 0
v 0 0.2 -0.1
v 0.1 0.2 -0.1
v 0.3 0.2 -0.1
v 0.4 0.2 -0.1
v 0.1 0.2 -0.2
v 0.3 0.2 -0.2
v 0.1 0.3 0
v 0.3 0.3 0
v 0.1 0.3 -0.1
v 0.3 0.3 -0.1

# faces
f 3/2/1 2/2/1 1/2/1
f 4/2/1 2/2/1 3/2/1
f 8/1/1 6/1/1 5/1/1
f 9/1/1 6/1/1 8/1/1
f 11/2/1 8/2/1 7/2/1
f 12/2/1 8/2/1 11/2/1
f 13/2/1 10/2/1 9/2/1
f 14/2/1 10/2/1 13/2/1
f 15/1/1 13/1/1 12/1/1
f 16/1/1 13/1/1 15/1/1
f 19/1/1 18/1/1 17/1/1
f 20/1/1 18/1/1 19/1/1
f 21/3/1 20/3/1 19/3/1
f 22/3/1 20/3/1 21/3/1
f 27/3/1 24/3/1 23/3/1
f 28/3/1 24/3/1 27/3/1
f 29/3/1 26/3/1 25/3/1
f 30/3/1 26/3/1 29/3/1
f 31/3/1 29/3/1 28/3/1
f 32/3/1 29/3/1 31/3/1
f 33/1/2 34/1/2 36/1/2
f 36/1/2 34/1/2 37/1/2
f 35/2/2 36/2/2 39/2/2
f 39/2/2 36/2/2 40/2/2
f 37/2/2 38/2/2 41/2/2
f 41/2/2 38/2/2 42/2/2
f 40/1/2 41/1/2 43/1/2
f 43/1/2 41/1/2 44/1/2
f 45/1/2 46/1/2 47/1/2
f 47/1/2 46/1/2 48/1/2
f 49/1/2 50/1/2 51/1/2
f 51/1/2 50/1/2 52/1/2
f 53/3/2 54/3/2 57/3/2
f 57/3/2 54/3/2 58/3/2
f 55/3/2 56/3/2 59/3/2
f 59/3/2 56/3/2 60/3/2
f 58/3/2 59/3/2 61/3/2
f 61/3/2 59/3/2 62/3/2
f 63/3/2 64/3/2 65/3/2
f 65/3/2 64/3/2 66/3/2
f 69/2/3 68/2/3 67/2/3
f 70/2/3 68/2/3 69/2/3
f 73/3/3 72/3/3 71/3/3
f 74/3/3 72/3/3 73/3/3
f 78/2/3 76/2/3 75/2/3
f 79/2/3 76/2/3 78/2/3
f 81/1/3 78/1/3 77/1/3
f 82/1/3 78/1/3 81/1/3
f 83/1/3 80/1/3 79/1/3
f 84/1/3 80/1/3 83/1/3
f 85/2/3 83/2/3 82/2/3
f 86/2/3 83/2/3 85/2/3
f 89/1/3 87/1/3 86/1/3
f 89/1/3 86/1/3 85/1/3
f 90/1/3 87/1/3 89/1/3
f 91/3/3 88/3/3 87/3/3
f 91/1/3 87/1/3 90/1/3
f 92/3/3 88/3/3 91/3/3
f 94/1/3 91/1/3 90/1/3
f 95/1/3 91/1/3 94/1/3
f 97/3/3 93/3/3 92/3/3
f 98/3/3 93/3/3 97/3/3
f 99/3/3 97/3/3 96/3/3
f 100/3/3 97/3/3 99/3/3
f 101/2/4 102/2/4 104/2/4
f 104/2/4 102/2/4 105/2/4
f 103/1/4 104/1/4 107/1/4
f 107/1/4 104/1/4 108/1/4
f 105/1/4 106/1/4 109/1/4
f 109/1/4 106/1/4 110/1/4
f 108/2/4 109/2/4 111/2/4
f 111/2/4 109/2/4 112/2/4
f 112/1/4 113/1/4 115/1/4
f 111/1/4 112/1/4 115/1/4
f 115/1/4 113/1/4 116/1/4
f 113/3/4 114/3/4 117/3/4
f 116/1/4 113/1/4 117/1/4
f 117/3/4 114/3/4 118/3/4
f 116/1/4 117/1/4 120/1/4
f 120/1/4 117/1/4 121/1/4
f 118/3/4 119/3/4 123/3/4
f 123/3/4 119/3/4 124/3/4
f 122/3/4 123/3/4 125/3/4
f 125/3/4 123/3/4 126/3/4
f 127/2/4 128/2/4 129/2/4
f 129/2/4 128/2/4 130/2/4
f 131/3/4 132/3/4 133/3/4
f 133/3/4 132/3/4 134/3/4
f 137/1/5 136/1/5 135/1/5
f 138/1/5 136/1/5 137/1/5
f 142/2/5 140/2/5 139/2/5
f 143/2/5 140/2/5 142/2/5
f 146/2/5 142/2/5 141/2/5
f 147/2/5 142/2/5 146/2/5
f 148/2/5 144/2/5 143/2/5
f 149/1/5 145/1/5 144/1/5
f 149/2/5 144/2/5 148/2/5
f 150/1/5 145/1/5 149/1/5
f 151/2/5 148/2/5 147/2/5
f 152/2/5 148/2/5 151/2/5
f 155/1/5 154/1/5 153/1/5
f 156/1/5 154/1/5 155/1/5
f 159/3/5 158/3/5 157/3/5
f 160/3/5 158/3/5 159/3/5
f 161/3/5 158/3/5 160/3/5
f 164/1/5 161/1/5 160/1/5
f 165/3/5 162/3/5 161/3/5
f 165/1/5 161/1/5 164/1/5
f 166/3/5 162/3/5 165/3/5
f 167/3/5 164/3/5 163/3/5
f 167/3/5 165/3/5 164/3/5
f 168/3/5 165/3/5 167/3/5
f 169/2/6 170/2/6 172/2/6
f 172/2/6 170/2/6 173/2/6
f 171/2/6 172/2/6 175/2/6
f 175/2/6 172/2/6 176/2/6
f 173/2/6 174/2/6 177/2/6
f 177/2/6 174/2/6 178/2/6
f 176/2/6 177/2/6 179/2/6
f 179/2/6 177/2/6 180/2/6
f 181/1/6 182/1/6 183/1/6
f 183/1/6 182/1/6 184/1/6
f 185/3/6 186/3/6 188/3/6
f 188/3/6 186/3/6 189/3/6
f 187/3/6 188/3/6 191/3/6
f 191/3/6 188/3/6 192/3/6
f 189/3/6 190/3/6 193/3/6
f 193/3/6 190/3/6 194/3/6
f 192/3/6 193/3/6 195/3/6
f 195/3/6 193/3/6 196/3/6
f 197/3/6 198/3/6 199/3/6
f 199/3/6 198/3/6 200/3/6
