# MagicaVoxel @ Ephtracy

# group
o 

# material
mtllib kot-2.mtl
usemtl palette

# normals
vn -1 0 0
vn 1 0 0
vn 0 0 1
vn 0 0 -1
vn 0 -1 0
vn 0 1 0

# texcoords
vt 0.0449219 0.5
vt 0.0488281 0.5
vt 0.0527344 0.5
vt 0.0566406 0.5
vt 0.306641 0.5
vt 0.537109 0.5
vt 0.818359 0.5
vt 0.822266 0.5
vt 0.826172 0.5
vt 0.830078 0.5
vt 0.833984 0.5
vt 0.837891 0.5
vt 0.841797 0.5

# verts
v -1.3 -0.6 0
v -1.3 -0.6 -0.1
v -1.3 0.2 0
v -1.3 0.2 -0.1
v -0.2 0.1 0
v -0.2 0.1 -0.1
v -0.2 0.2 0
v -0.2 0.2 -0.1
v 0.3 0.2 0
v 0.3 0.2 -0.1
v 0.3 0.4 0
v 0.3 0.4 -0.1
v 0.8 0.4 0
v 0.8 0.4 -0.1
v 0.8 0.5 0
v 0.8 0.5 -0.1
v 0.8 0.6 0
v 0.8 0.6 -0.1
v -0.8 0.1 0
v -0.8 0.1 -0.1
v -0.8 0.2 0
v -0.8 0.2 -0.1
v -0.2 -0.6 0
v -0.2 -0.6 -0.1
v -0.2 -0.4 0
v -0.2 -0.4 -0.1
v 0.3 -0.4 0
v 0.3 -0.4 -0.1
v 0.3 -0.2 0
v 0.3 -0.2 -0.1
v 0.8 -0.2 0
v 0.8 -0.2 -0.1
v 0.8 -0.1 0
v 0.8 -0.1 -0.1
v 1.1 -0.1 0
v 1.1 -0.1 -0.1
v 1.1 -5.96046e-08 0
v 1.1 -5.96046e-08 -0.1
v 1.1 0.1 0
v 1.1 0.1 -0.1
v 1.3 0.1 0
v 1.3 0.1 -0.1
v 1.3 0.6 0
v 1.3 0.6 -0.1
v -1.3 -0.6 0
v -1.3 0.2 0
v -1.1 -0.4 0
v -1.1 -5.96046e-08 0
v -1 -0.6 0
v -1 -0.4 0
v -1 -5.96046e-08 0
v -1 0.2 0
v -0.9 -0.5 0
v -0.9 -5.96046e-08 0
v -0.8 -0.6 0
v -0.8 -0.5 0
v -0.8 -5.96046e-08 0
v -0.8 0.1 0
v -0.8 0.2 0
v -0.7 -0.5 0
v -0.7 -5.96046e-08 0
v -0.6 -0.6 0
v -0.6 -0.5 0
v -0.6 -0.4 0
v -0.6 -0.1 0
v -0.6 -5.96046e-08 0
v -0.6 0.1 0
v -0.5 -0.6 0
v -0.5 -0.4 0
v -0.5 -0.1 0
v -0.5 0.1 0
v -0.4 -0.6 0
v -0.4 -0.4 0
v -0.4 -5.96046e-08 0
v -0.4 0.1 0
v -0.2 -0.6 0
v -0.2 -0.4 0
v -0.2 -0.3 0
v -0.2 0.1 0
v -0.2 0.2 0
v -0.1 -5.96046e-08 0
v -0.1 0.1 0
v 0.2 -0.3 0
v 0.2 -0.2 0
v 0.3 -0.4 0
v 0.3 -0.2 0
v 0.3 -0.1 0
v 0.3 0.1 0
v 0.3 0.2 0
v 0.3 0.4 0
v 0.4 -0.2 0
v 0.4 -0.1 0
v 0.4 0.2 0
v 0.4 0.4 0
v 0.5 -0.2 0
v 0.5 -0.1 0
v 0.5 0.2 0
v 0.5 0.4 0
v 0.6 -0.1 0
v 0.6 0.4 0
v 0.7 -5.96046e-08 0
v 0.7 0.4 0
v 0.8 -0.2 0
v 0.8 -0.1 0
v 0.8 0.1 0
v 0.8 0.4 0
v 0.8 0.5 0
v 0.8 0.6 0
v 1.1 -0.1 0
v 1.1 -5.96046e-08 0
v 1.1 0.1 0
v 1.1 0.4 0
v 1.2 0.1 0
v 1.2 0.5 0
v 1.3 0.1 0
v 1.3 0.6 0
v -1.3 -0.6 -0.1
v -1.3 0.2 -0.1
v -1.1 -0.4 -0.1
v -1.1 -5.96046e-08 -0.1
v -1 -0.6 -0.1
v -1 -0.4 -0.1
v -1 -5.96046e-08 -0.1
v -1 0.2 -0.1
v -0.9 -0.5 -0.1
v -0.9 -5.96046e-08 -0.1
v -0.8 -0.6 -0.1
v -0.8 -0.5 -0.1
v -0.8 -5.96046e-08 -0.1
v -0.8 0.1 -0.1
v -0.8 0.2 -0.1
v -0.7 -0.5 -0.1
v -0.7 -5.96046e-08 -0.1
v -0.6 -0.6 -0.1
v -0.6 -0.5 -0.1
v -0.6 -0.4 -0.1
v -0.6 -0.1 -0.1
v -0.6 -5.96046e-08 -0.1
v -0.6 0.1 -0.1
v -0.5 -0.6 -0.1
v -0.5 -0.4 -0.1
v -0.5 -0.1 -0.1
v -0.5 0.1 -0.1
v -0.4 -0.6 -0.1
v -0.4 -0.4 -0.1
v -0.4 -5.96046e-08 -0.1
v -0.4 0.1 -0.1
v -0.2 -0.6 -0.1
v -0.2 -0.4 -0.1
v -0.2 -0.3 -0.1
v -0.2 0.1 -0.1
v -0.2 0.2 -0.1
v -0.1 -5.96046e-08 -0.1
v -0.1 0.1 -0.1
v 0.2 -0.3 -0.1
v 0.2 -0.2 -0.1
v 0.3 -0.4 -0.1
v 0.3 -0.2 -0.1
v 0.3 -0.1 -0.1
v 0.3 0.1 -0.1
v 0.3 0.2 -0.1
v 0.3 0.4 -0.1
v 0.4 -0.2 -0.1
v 0.4 -0.1 -0.1
v 0.4 0.2 -0.1
v 0.4 0.4 -0.1
v 0.5 -0.2 -0.1
v 0.5 -0.1 -0.1
v 0.5 0.2 -0.1
v 0.5 0.4 -0.1
v 0.6 -0.1 -0.1
v 0.6 0.4 -0.1
v 0.7 -5.96046e-08 -0.1
v 0.7 0.4 -0.1
v 0.8 -0.2 -0.1
v 0.8 -0.1 -0.1
v 0.8 0.1 -0.1
v 0.8 0.4 -0.1
v 0.8 0.5 -0.1
v 0.8 0.6 -0.1
v 1.1 -0.1 -0.1
v 1.1 -5.96046e-08 -0.1
v 1.1 0.1 -0.1
v 1.1 0.4 -0.1
v 1.2 0.1 -0.1
v 1.2 0.5 -0.1
v 1.3 0.1 -0.1
v 1.3 0.6 -0.1
v -1.3 -0.6 0
v -1 -0.6 0
v -0.8 -0.6 0
v -0.6 -0.6 0
v -0.5 -0.6 0
v -0.4 -0.6 0
v -0.2 -0.6 0
v -1.3 -0.6 -0.1
v -1 -0.6 -0.1
v -0.8 -0.6 -0.1
v -0.6 -0.6 -0.1
v -0.5 -0.6 -0.1
v -0.4 -0.6 -0.1
v -0.2 -0.6 -0.1
v -0.2 -0.4 0
v 0.3 -0.4 0
v -0.2 -0.4 -0.1
v 0.3 -0.4 -0.1
v 0.3 -0.2 0
v 0.4 -0.2 0
v 0.5 -0.2 0
v 0.8 -0.2 0
v 0.3 -0.2 -0.1
v 0.4 -0.2 -0.1
v 0.5 -0.2 -0.1
v 0.8 -0.2 -0.1
v 0.8 -0.1 0
v 1.1 -0.1 0
v 0.8 -0.1 -0.1
v 1.1 -0.1 -0.1
v 1.1 0.1 0
v 1.2 0.1 0
v 1.3 0.1 0
v 1.1 0.1 -0.1
v 1.2 0.1 -0.1
v 1.3 0.1 -0.1
v -0.8 0.1 0
v -0.6 0.1 0
v -0.5 0.1 0
v -0.4 0.1 0
v -0.2 0.1 0
v -0.8 0.1 -0.1
v -0.6 0.1 -0.1
v -0.5 0.1 -0.1
v -0.4 0.1 -0.1
v -0.2 0.1 -0.1
v -1.3 0.2 0
v -1 0.2 0
v -0.8 0.2 0
v -0.2 0.2 0
v 0.3 0.2 0
v -1.3 0.2 -0.1
v -1 0.2 -0.1
v -0.8 0.2 -0.1
v -0.2 0.2 -0.1
v 0.3 0.2 -0.1
v 0.3 0.4 0
v 0.4 0.4 0
v 0.5 0.4 0
v 0.6 0.4 0
v 0.7 0.4 0
v 0.8 0.4 0
v 0.3 0.4 -0.1
v 0.4 0.4 -0.1
v 0.5 0.4 -0.1
v 0.6 0.4 -0.1
v 0.7 0.4 -0.1
v 0.8 0.4 -0.1
v 0.8 0.6 0
v 1.3 0.6 0
v 0.8 0.6 -0.1
v 1.3 0.6 -0.1

# faces
f 3/5/1 2/5/1 1/5/1
f 4/5/1 2/5/1 3/5/1
f 7/6/1 6/6/1 5/6/1
f 8/6/1 6/6/1 7/6/1
f 11/6/1 10/6/1 9/6/1
f 12/6/1 10/6/1 11/6/1
f 15/12/1 14/12/1 13/12/1
f 16/12/1 14/12/1 15/12/1
f 17/13/1 16/13/1 15/13/1
f 18/13/1 16/13/1 17/13/1
f 19/4/2 20/4/2 21/4/2
f 21/4/2 20/4/2 22/4/2
f 23/6/2 24/6/2 25/6/2
f 25/6/2 24/6/2 26/6/2
f 27/6/2 28/6/2 29/6/2
f 29/6/2 28/6/2 30/6/2
f 31/8/2 32/8/2 33/8/2
f 33/8/2 32/8/2 34/8/2
f 35/9/2 36/9/2 37/9/2
f 37/9/2 36/9/2 38/9/2
f 37/10/2 38/10/2 39/10/2
f 39/10/2 38/10/2 40/10/2
f 41/13/2 42/13/2 43/13/2
f 43/13/2 42/13/2 44/13/2
f 47/5/3 46/5/3 45/5/3
f 48/5/3 46/5/3 47/5/3
f 49/5/3 47/5/3 45/5/3
f 50/4/3 48/4/3 47/4/3
f 50/5/3 47/5/3 49/5/3
f 51/5/3 46/5/3 48/5/3
f 51/4/3 48/4/3 50/4/3
f 52/5/3 46/5/3 51/5/3
f 53/4/3 50/4/3 49/4/3
f 53/4/3 51/4/3 50/4/3
f 53/4/3 52/4/3 51/4/3
f 54/4/3 52/4/3 53/4/3
f 55/4/3 53/4/3 49/4/3
f 56/3/3 54/3/3 53/3/3
f 56/4/3 53/4/3 55/4/3
f 57/4/3 52/4/3 54/4/3
f 57/3/3 54/3/3 56/3/3
f 58/4/3 52/4/3 57/4/3
f 59/4/3 52/4/3 58/4/3
f 60/3/3 56/3/3 55/3/3
f 60/3/3 57/3/3 56/3/3
f 60/3/3 58/3/3 57/3/3
f 61/3/3 58/3/3 60/3/3
f 62/3/3 60/3/3 55/3/3
f 63/2/3 61/2/3 60/2/3
f 63/3/3 60/3/3 62/3/3
f 64/2/3 61/2/3 63/2/3
f 65/2/3 61/2/3 64/2/3
f 66/3/3 58/3/3 61/3/3
f 66/2/3 61/2/3 65/2/3
f 67/3/3 58/3/3 66/3/3
f 68/2/3 63/2/3 62/2/3
f 68/2/3 64/2/3 63/2/3
f 69/1/3 65/1/3 64/1/3
f 69/2/3 64/2/3 68/2/3
f 70/2/3 67/2/3 66/2/3
f 70/1/3 65/1/3 69/1/3
f 70/2/3 66/2/3 65/2/3
f 71/2/3 67/2/3 70/2/3
f 72/1/3 69/1/3 68/1/3
f 72/1/3 70/1/3 69/1/3
f 72/1/3 71/1/3 70/1/3
f 73/1/3 71/1/3 72/1/3
f 74/1/3 71/1/3 73/1/3
f 75/1/3 71/1/3 74/1/3
f 76/6/3 73/6/3 72/6/3
f 77/8/3 74/8/3 73/8/3
f 77/6/3 73/6/3 76/6/3
f 78/8/3 74/8/3 77/8/3
f 79/6/3 75/6/3 74/6/3
f 81/6/3 79/6/3 74/6/3
f 81/6/3 80/6/3 79/6/3
f 81/8/3 74/8/3 78/8/3
f 82/6/3 80/6/3 81/6/3
f 83/6/3 78/6/3 77/6/3
f 83/8/3 81/8/3 78/8/3
f 83/8/3 82/8/3 81/8/3
f 84/8/3 82/8/3 83/8/3
f 85/6/3 83/6/3 77/6/3
f 85/6/3 84/6/3 83/6/3
f 86/8/3 82/8/3 84/8/3
f 86/6/3 84/6/3 85/6/3
f 87/8/3 82/8/3 86/8/3
f 88/6/3 80/6/3 82/6/3
f 88/8/3 82/8/3 87/8/3
f 89/6/3 80/6/3 88/6/3
f 91/6/3 87/6/3 86/6/3
f 92/8/3 89/8/3 88/8/3
f 92/6/3 87/6/3 91/6/3
f 92/8/3 88/8/3 87/8/3
f 93/6/3 90/6/3 89/6/3
f 93/8/3 89/8/3 92/8/3
f 94/6/3 90/6/3 93/6/3
f 95/7/3 92/7/3 91/7/3
f 96/8/3 93/8/3 92/8/3
f 96/7/3 92/7/3 95/7/3
f 97/7/3 94/7/3 93/7/3
f 97/8/3 93/8/3 96/8/3
f 98/7/3 94/7/3 97/7/3
f 99/8/3 96/8/3 95/8/3
f 99/8/3 97/8/3 96/8/3
f 99/8/3 98/8/3 97/8/3
f 100/8/3 98/8/3 99/8/3
f 101/9/3 100/9/3 99/9/3
f 102/9/3 100/9/3 101/9/3
f 103/8/3 99/8/3 95/8/3
f 104/9/3 101/9/3 99/9/3
f 104/8/3 99/8/3 103/8/3
f 105/10/3 102/10/3 101/10/3
f 106/10/3 102/10/3 105/10/3
f 109/9/3 101/9/3 104/9/3
f 110/10/3 105/10/3 101/10/3
f 110/9/3 101/9/3 109/9/3
f 111/11/3 106/11/3 105/11/3
f 111/10/3 105/10/3 110/10/3
f 112/12/3 107/12/3 106/12/3
f 112/11/3 106/11/3 111/11/3
f 113/12/3 112/12/3 111/12/3
f 114/12/3 107/12/3 112/12/3
f 114/12/3 112/12/3 113/12/3
f 114/13/3 108/13/3 107/13/3
f 115/13/3 114/13/3 113/13/3
f 116/13/3 108/13/3 114/13/3
f 116/13/3 114/13/3 115/13/3
f 117/5/4 118/5/4 119/5/4
f 119/5/4 118/5/4 120/5/4
f 117/5/4 119/5/4 121/5/4
f 119/4/4 120/4/4 122/4/4
f 121/5/4 119/5/4 122/5/4
f 120/5/4 118/5/4 123/5/4
f 122/4/4 120/4/4 123/4/4
f 123/5/4 118/5/4 124/5/4
f 121/4/4 122/4/4 125/4/4
f 122/4/4 123/4/4 125/4/4
f 123/4/4 124/4/4 125/4/4
f 125/4/4 124/4/4 126/4/4
f 121/4/4 125/4/4 127/4/4
f 125/3/4 126/3/4 128/3/4
f 127/4/4 125/4/4 128/4/4
f 126/4/4 124/4/4 129/4/4
f 128/3/4 126/3/4 129/3/4
f 129/4/4 124/4/4 130/4/4
f 130/4/4 124/4/4 131/4/4
f 127/3/4 128/3/4 132/3/4
f 128/3/4 129/3/4 132/3/4
f 129/3/4 130/3/4 132/3/4
f 132/3/4 130/3/4 133/3/4
f 127/3/4 132/3/4 134/3/4
f 132/2/4 133/2/4 135/2/4
f 134/3/4 132/3/4 135/3/4
f 135/2/4 133/2/4 136/2/4
f 136/2/4 133/2/4 137/2/4
f 133/3/4 130/3/4 138/3/4
f 137/2/4 133/2/4 138/2/4
f 138/3/4 130/3/4 139/3/4
f 134/2/4 135/2/4 140/2/4
f 135/2/4 136/2/4 140/2/4
f 136/1/4 137/1/4 141/1/4
f 140/2/4 136/2/4 141/2/4
f 138/2/4 139/2/4 142/2/4
f 141/1/4 137/1/4 142/1/4
f 137/2/4 138/2/4 142/2/4
f 142/2/4 139/2/4 143/2/4
f 140/1/4 141/1/4 144/1/4
f 141/1/4 142/1/4 144/1/4
f 142/1/4 143/1/4 144/1/4
f 144/1/4 143/1/4 145/1/4
f 145/1/4 143/1/4 146/1/4
f 146/1/4 143/1/4 147/1/4
f 144/6/4 145/6/4 148/6/4
f 145/8/4 146/8/4 149/8/4
f 148/6/4 145/6/4 149/6/4
f 149/8/4 146/8/4 150/8/4
f 146/6/4 147/6/4 151/6/4
f 146/6/4 151/6/4 153/6/4
f 151/6/4 152/6/4 153/6/4
f 150/8/4 146/8/4 153/8/4
f 153/6/4 152/6/4 154/6/4
f 149/6/4 150/6/4 155/6/4
f 150/8/4 153/8/4 155/8/4
f 153/8/4 154/8/4 155/8/4
f 155/8/4 154/8/4 156/8/4
f 149/6/4 155/6/4 157/6/4
f 155/6/4 156/6/4 157/6/4
f 156/8/4 154/8/4 158/8/4
f 157/6/4 156/6/4 158/6/4
f 158/8/4 154/8/4 159/8/4
f 154/6/4 152/6/4 160/6/4
f 159/8/4 154/8/4 160/8/4
f 160/6/4 152/6/4 161/6/4
f 158/6/4 159/6/4 163/6/4
f 160/8/4 161/8/4 164/8/4
f 163/6/4 159/6/4 164/6/4
f 159/8/4 160/8/4 164/8/4
f 161/6/4 162/6/4 165/6/4
f 164/8/4 161/8/4 165/8/4
f 165/6/4 162/6/4 166/6/4
f 163/7/4 164/7/4 167/7/4
f 164/8/4 165/8/4 168/8/4
f 167/7/4 164/7/4 168/7/4
f 165/7/4 166/7/4 169/7/4
f 168/8/4 165/8/4 169/8/4
f 169/7/4 166/7/4 170/7/4
f 167/8/4 168/8/4 171/8/4
f 168/8/4 169/8/4 171/8/4
f 169/8/4 170/8/4 171/8/4
f 171/8/4 170/8/4 172/8/4
f 171/9/4 172/9/4 173/9/4
f 173/9/4 172/9/4 174/9/4
f 167/8/4 171/8/4 175/8/4
f 171/9/4 173/9/4 176/9/4
f 175/8/4 171/8/4 176/8/4
f 173/10/4 174/10/4 177/10/4
f 177/10/4 174/10/4 178/10/4
f 176/9/4 173/9/4 181/9/4
f 173/10/4 177/10/4 182/10/4
f 181/9/4 173/9/4 182/9/4
f 177/11/4 178/11/4 183/11/4
f 182/10/4 177/10/4 183/10/4
f 178/12/4 179/12/4 184/12/4
f 183/11/4 178/11/4 184/11/4
f 183/12/4 184/12/4 185/12/4
f 184/12/4 179/12/4 186/12/4
f 185/12/4 184/12/4 186/12/4
f 179/13/4 180/13/4 186/13/4
f 185/13/4 186/13/4 187/13/4
f 186/13/4 180/13/4 188/13/4
f 187/13/4 186/13/4 188/13/4
f 196/5/5 190/5/5 189/5/5
f 197/4/5 191/4/5 190/4/5
f 197/5/5 190/5/5 196/5/5
f 198/3/5 192/3/5 191/3/5
f 198/4/5 191/4/5 197/4/5
f 199/2/5 193/2/5 192/2/5
f 199/3/5 192/3/5 198/3/5
f 200/1/5 194/1/5 193/1/5
f 200/2/5 193/2/5 199/2/5
f 201/6/5 195/6/5 194/6/5
f 201/1/5 194/1/5 200/1/5
f 202/6/5 195/6/5 201/6/5
f 205/6/5 204/6/5 203/6/5
f 206/6/5 204/6/5 205/6/5
f 211/6/5 208/6/5 207/6/5
f 212/7/5 209/7/5 208/7/5
f 212/6/5 208/6/5 211/6/5
f 213/8/5 210/8/5 209/8/5
f 213/7/5 209/7/5 212/7/5
f 214/8/5 210/8/5 213/8/5
f 217/9/5 216/9/5 215/9/5
f 218/9/5 216/9/5 217/9/5
f 222/12/5 220/12/5 219/12/5
f 223/13/5 221/13/5 220/13/5
f 223/12/5 220/12/5 222/12/5
f 224/13/5 221/13/5 223/13/5
f 225/3/6 226/3/6 230/3/6
f 226/2/6 227/2/6 231/2/6
f 230/3/6 226/3/6 231/3/6
f 227/1/6 228/1/6 232/1/6
f 231/2/6 227/2/6 232/2/6
f 228/6/6 229/6/6 233/6/6
f 232/1/6 228/1/6 233/1/6
f 233/6/6 229/6/6 234/6/6
f 235/5/6 236/5/6 240/5/6
f 236/4/6 237/4/6 241/4/6
f 240/5/6 236/5/6 241/5/6
f 241/4/6 237/4/6 242/4/6
f 238/6/6 239/6/6 243/6/6
f 243/6/6 239/6/6 244/6/6
f 245/6/6 246/6/6 251/6/6
f 246/7/6 247/7/6 252/7/6
f 251/6/6 246/6/6 252/6/6
f 247/8/6 248/8/6 253/8/6
f 252/7/6 247/7/6 253/7/6
f 248/9/6 249/9/6 254/9/6
f 253/8/6 248/8/6 254/8/6
f 249/10/6 250/10/6 255/10/6
f 254/9/6 249/9/6 255/9/6
f 255/10/6 250/10/6 256/10/6
f 257/13/6 258/13/6 259/13/6
f 259/13/6 258/13/6 260/13/6
